<svg xmlns="http://www.w3.org/2000/svg" width="187.176" height="182.034" viewBox="0 0 187.176 182.034">
  <path id="icon-tree-small" d="M-536.868,136.973a3.235,3.235,0,0,0,0-4.575,3.234,3.234,0,0,0-4.576,0l-20.741,20.741V143.078l25.317-25.316a3.235,3.235,0,0,0,0-4.575,3.234,3.234,0,0,0-4.576,0l-20.741,20.739v-22.5a4.162,4.162,0,0,0-4.161-4.161,4.161,4.161,0,0,0-4.161,4.161v23.448L-592.1,113.284a46.714,46.714,0,0,0,3.938-18.807A47.071,47.071,0,0,0-635.18,47.46,47.072,47.072,0,0,0-682.2,94.478a47.39,47.39,0,0,0,.5,6.871q-1.755-.164-3.554-.166A37.889,37.889,0,0,0-723.1,139.028a37.892,37.892,0,0,0,34.5,37.69v35.611a4.624,4.624,0,0,0,4.623,4.623,4.624,4.624,0,0,0,4.623-4.623v-35.92a37.907,37.907,0,0,0,31.931-36.528,46.744,46.744,0,0,0,8.843,1.486v83.217a4.624,4.624,0,0,0,4.623,4.623,4.624,4.624,0,0,0,4.623-4.623V141.118a47.083,47.083,0,0,0,34.068-21.841l24.753,24.753v10.06L-592.2,132.4a3.232,3.232,0,0,0-4.575,0,3.234,3.234,0,0,0,0,4.575l26.267,26.268v13.263L-592.2,154.814a3.231,3.231,0,0,0-4.575,0,3.236,3.236,0,0,0,0,4.575l26.266,26.267v39.679a4.16,4.16,0,0,0,4.161,4.159,4.16,4.16,0,0,0,4.161-4.159V184.7l25.317-25.317a3.235,3.235,0,0,0,0-4.575,3.234,3.234,0,0,0-4.576,0l-20.741,20.741V162.29Zm-142.478,32.864V139.8a4.624,4.624,0,0,0-4.623-4.623,4.624,4.624,0,0,0-4.623,4.623v30.426a31.417,31.417,0,0,1-28.032-31.195,31.409,31.409,0,0,1,31.373-31.374,31.554,31.554,0,0,1,5.053.406,47.251,47.251,0,0,0,26.29,29.543q.031.708.031,1.425A31.421,31.421,0,0,1-679.347,169.837Zm6.865-59.466a31.537,31.537,0,0,1,17.179,19.3A40.8,40.8,0,0,1-672.482,110.372Zm43.155,24.224V104.5a4.624,4.624,0,0,0-4.623-4.623,4.624,4.624,0,0,0-4.623,4.623v30.384a40.22,40.22,0,0,1-9.316-1.895,37.963,37.963,0,0,0-27.017-30.364,40.535,40.535,0,0,1-.821-8.143A40.591,40.591,0,0,1-635.18,53.932a40.592,40.592,0,0,1,40.547,40.546A40.6,40.6,0,0,1-629.327,134.6Z" transform="translate(723.097 -47.46)" fill="#ffa800" opacity="0.093"/>
</svg>
