<svg xmlns="http://www.w3.org/2000/svg" width="105.011" height="77.623" viewBox="0 0 105.011 77.623">
  <g id="icon-bridge" transform="translate(0 -0.5)">
    <path id="Path_3262" data-name="Path 3262" d="M102.959,335.617c-2.941,0-4.55,1.771-5.724,3.065-1.055,1.162-1.61,1.72-2.685,1.72s-1.63-.558-2.685-1.72c-1.175-1.294-2.784-3.065-5.724-3.065s-4.549,1.771-5.724,3.065c-1.055,1.162-1.61,1.72-2.685,1.72s-1.63-.558-2.685-1.72c-1.175-1.294-2.784-3.065-5.724-3.065s-4.549,1.771-5.724,3.065c-1.055,1.162-1.61,1.72-2.685,1.72s-1.63-.558-2.685-1.72c-1.175-1.294-2.784-3.065-5.724-3.065s-4.549,1.771-5.724,3.065c-1.054,1.162-1.61,1.72-2.685,1.72s-1.63-.558-2.685-1.72c-1.175-1.294-2.783-3.065-5.724-3.065s-4.549,1.771-5.724,3.065c-1.054,1.162-1.61,1.72-2.685,1.72s-1.63-.558-2.685-1.72c-1.175-1.294-2.783-3.065-5.724-3.065s-4.55,1.771-5.724,3.065c-1.055,1.162-1.61,1.72-2.685,1.72s-1.63-.558-2.685-1.72c-1.175-1.294-2.783-3.065-5.724-3.065a2.053,2.053,0,0,0,0,4.106c1.075,0,1.63.558,2.685,1.719,1.175,1.294,2.784,3.065,5.724,3.065s4.549-1.771,5.724-3.065c1.054-1.161,1.61-1.719,2.685-1.719s1.63.558,2.684,1.719c1.175,1.294,2.784,3.065,5.724,3.065s4.549-1.771,5.724-3.065c1.054-1.161,1.61-1.719,2.685-1.719s1.63.558,2.685,1.719c1.175,1.294,2.783,3.065,5.724,3.065s4.55-1.771,5.724-3.065c1.054-1.161,1.61-1.719,2.685-1.719s1.63.558,2.685,1.719c1.175,1.294,2.783,3.065,5.724,3.065s4.549-1.771,5.724-3.065c1.055-1.161,1.61-1.719,2.685-1.719s1.63.558,2.685,1.719c1.175,1.294,2.783,3.065,5.724,3.065s4.55-1.771,5.724-3.065c1.055-1.161,1.61-1.719,2.685-1.719s1.63.558,2.685,1.719c1.175,1.294,2.783,3.065,5.724,3.065s4.55-1.771,5.724-3.065c1.055-1.161,1.61-1.719,2.685-1.719a2.053,2.053,0,0,0,0-4.106Zm0,0" transform="translate(0 -266.384)" fill="#fdb813"/>
    <path id="Path_3263" data-name="Path 3263" d="M2.053,63.073c1.075,0,1.63.558,2.686,1.72,1.175,1.294,2.783,3.065,5.724,3.065s4.55-1.771,5.724-3.065c1.05-1.155,1.6-1.714,2.667-1.72h.032c1.066,0,1.62.564,2.67,1.72,1.175,1.294,2.783,3.065,5.724,3.065S31.83,66.087,33,64.793c1.055-1.162,1.61-1.72,2.685-1.72s1.63.558,2.685,1.72c1.175,1.293,2.783,3.065,5.724,3.065s4.549-1.771,5.724-3.065c1.055-1.162,1.61-1.72,2.685-1.72s1.63.558,2.685,1.72c1.175,1.293,2.784,3.065,5.724,3.065a2.053,2.053,0,0,0,0-4.106c-1.075,0-1.63-.558-2.685-1.72-1.175-1.293-2.784-3.065-5.724-3.065s-4.549,1.772-5.724,3.065c-1.054,1.162-1.609,1.72-2.684,1.72s-1.63-.558-2.685-1.72c-1.175-1.293-2.784-3.065-5.724-3.065s-4.55,1.772-5.724,3.065c-1.054,1.162-1.61,1.72-2.685,1.72s-1.63-.558-2.685-1.72a8.629,8.629,0,0,0-3.812-2.786l-.365-4.385H84.594l-.365,4.385a8.629,8.629,0,0,0-3.812,2.786c-1.054,1.162-1.61,1.72-2.684,1.72a2.053,2.053,0,1,0,0,4.106c2.94,0,4.549-1.772,5.724-3.065,1.05-1.156,1.6-1.715,2.67-1.72h.031c1.064.006,1.618.565,2.668,1.72,1.175,1.294,2.783,3.065,5.724,3.065s4.55-1.772,5.724-3.065c1.055-1.162,1.61-1.72,2.685-1.72a2.053,2.053,0,0,0,2.046-2.223l-2.053-24.636a2.053,2.053,0,0,0-2.045-1.883H95.389a44.093,44.093,0,0,0-67.373-26.4A2.053,2.053,0,1,0,30.3,11.341a39.989,39.989,0,0,1,60.859,22.99H88.194a2.041,2.041,0,0,0-1.187.381,35.889,35.889,0,0,0-69,0,2.048,2.048,0,0,0-1.188-.381H13.857a39.67,39.67,0,0,1,5.389-11.947A2.053,2.053,0,0,0,15.834,20.1a43.768,43.768,0,0,0-6.21,14.229H4.107a2.053,2.053,0,0,0-2.046,1.883L.008,60.85a2.053,2.053,0,0,0,2.045,2.223ZM20.8,42.544a31.585,31.585,0,0,1,5.022-15.18v15.18Zm-.719,8.212-.342-4.106H85.279l-.342,4.106Zm34.483-8.212V12.886a31.558,31.558,0,0,1,8.213,1.634V42.544Zm-4.105,0H42.241V14.52a31.591,31.591,0,0,1,8.213-1.634Zm28.742,0V27.364a31.585,31.585,0,0,1,5.022,15.18Zm14.5-4.106.046,0,.04,0h5.238l1.743,20.905a8.962,8.962,0,0,0-3.524,2.69c-1.055,1.162-1.61,1.72-2.685,1.72s-1.63-.558-2.685-1.719a8.975,8.975,0,0,0-3.524-2.69l1.743-20.905ZM75.09,22.261V42.544H66.877V16.257A31.95,31.95,0,0,1,75.09,22.261Zm-36.954-6V42.544H29.923V22.261A31.95,31.95,0,0,1,38.136,16.257ZM6,38.438h5.237l.041,0,.046,0h3.609l1.743,20.905a8.982,8.982,0,0,0-3.524,2.69c-1.055,1.162-1.61,1.72-2.685,1.72s-1.63-.558-2.685-1.72a8.982,8.982,0,0,0-3.524-2.69Zm0,0" transform="translate(-0.001 0)" fill="#fdb813"/>
    <path id="Path_3264" data-name="Path 3264" d="M103.091,64.645a2.053,2.053,0,1,0-1.451-3.505h0a2.053,2.053,0,0,0,1.452,3.5Zm0,0" transform="translate(-80.315 -47.725)" fill="#fdb813"/>
    <path id="Path_3265" data-name="Path 3265" d="M330.036,285.566a2.053,2.053,0,1,0,2.055,2.053,2.053,2.053,0,0,0-2.055-2.053Zm0,0" transform="translate(-260.715 -226.599)" fill="#fdb813"/>
  </g>
</svg>
