<svg xmlns="http://www.w3.org/2000/svg" width="80.193" height="89.259" viewBox="0 0 80.193 89.259">
  <g id="icon-building" transform="translate(-26)">
    <path id="Path_3240" data-name="Path 3240" d="M104.45,20.921H71.327V1.743A1.743,1.743,0,0,0,69.583,0H27.743A1.743,1.743,0,0,0,26,1.743V87.515a1.743,1.743,0,0,0,1.743,1.743H104.45a1.743,1.743,0,0,0,1.743-1.743V22.664A1.743,1.743,0,0,0,104.45,20.921ZM71.327,24.407h31.38V68.339H71.327ZM43.433,85.772V71.825h10.46V85.772Zm12.2-17.433H41.69a1.743,1.743,0,0,0-1.743,1.743v15.69H29.487V3.487H67.84V85.772H57.38V70.082A1.744,1.744,0,0,0,55.637,68.339Zm15.69,17.433V71.825h31.38V85.772Z" transform="translate(0 0)" fill="#fdb813"/>
    <path id="Path_3241" data-name="Path 3241" d="M137.742,46.974h3.486a1.743,1.743,0,0,0,1.743-1.743V41.744A1.743,1.743,0,0,0,141.228,40h-3.486A1.743,1.743,0,0,0,136,41.744v3.487A1.743,1.743,0,0,0,137.742,46.974Z" transform="translate(-90.822 -33.027)" fill="#fdb813"/>
    <path id="Path_3242" data-name="Path 3242" d="M137.742,116.974h3.486a1.743,1.743,0,0,0,1.743-1.743v-3.487A1.743,1.743,0,0,0,141.228,110h-3.486A1.743,1.743,0,0,0,136,111.744v3.487A1.743,1.743,0,0,0,137.742,116.974Z" transform="translate(-90.822 -90.824)" fill="#fdb813"/>
    <path id="Path_3243" data-name="Path 3243" d="M137.742,186.974h3.486a1.743,1.743,0,0,0,1.743-1.743v-3.487A1.743,1.743,0,0,0,141.228,180h-3.486A1.743,1.743,0,0,0,136,181.744v3.487A1.743,1.743,0,0,0,137.742,186.974Z" transform="translate(-90.822 -148.621)" fill="#fdb813"/>
    <path id="Path_3244" data-name="Path 3244" d="M137.742,256.973h3.486a1.743,1.743,0,0,0,1.743-1.743v-3.487A1.743,1.743,0,0,0,141.228,250h-3.486A1.743,1.743,0,0,0,136,251.743v3.487A1.743,1.743,0,0,0,137.742,256.973Z" transform="translate(-90.822 -206.417)" fill="#fdb813"/>
    <path id="Path_3245" data-name="Path 3245" d="M137.742,326.973h3.486a1.743,1.743,0,0,0,1.743-1.743v-3.487A1.743,1.743,0,0,0,141.228,320h-3.486A1.743,1.743,0,0,0,136,321.743v3.487A1.743,1.743,0,0,0,137.742,326.973Z" transform="translate(-90.822 -264.213)" fill="#fdb813"/>
    <path id="Path_3246" data-name="Path 3246" d="M67.744,46.974H71.23a1.743,1.743,0,0,0,1.743-1.743V41.744A1.743,1.743,0,0,0,71.23,40H67.744A1.743,1.743,0,0,0,66,41.744v3.487A1.743,1.743,0,0,0,67.744,46.974Z" transform="translate(-33.027 -33.027)" fill="#fdb813"/>
    <path id="Path_3247" data-name="Path 3247" d="M67.744,116.974H71.23a1.743,1.743,0,0,0,1.743-1.743v-3.487A1.743,1.743,0,0,0,71.23,110H67.744A1.743,1.743,0,0,0,66,111.744v3.487A1.743,1.743,0,0,0,67.744,116.974Z" transform="translate(-33.027 -90.824)" fill="#fdb813"/>
    <path id="Path_3248" data-name="Path 3248" d="M67.744,186.974H71.23a1.743,1.743,0,0,0,1.743-1.743v-3.487A1.743,1.743,0,0,0,71.23,180H67.744A1.743,1.743,0,0,0,66,181.744v3.487A1.743,1.743,0,0,0,67.744,186.974Z" transform="translate(-33.027 -148.621)" fill="#fdb813"/>
    <path id="Path_3249" data-name="Path 3249" d="M67.744,256.973H71.23a1.743,1.743,0,0,0,1.743-1.743v-3.487A1.743,1.743,0,0,0,71.23,250H67.744A1.743,1.743,0,0,0,66,251.743v3.487A1.743,1.743,0,0,0,67.744,256.973Z" transform="translate(-33.027 -206.417)" fill="#fdb813"/>
    <path id="Path_3250" data-name="Path 3250" d="M67.744,326.973H71.23a1.743,1.743,0,0,0,1.743-1.743v-3.487A1.743,1.743,0,0,0,71.23,320H67.744A1.743,1.743,0,0,0,66,321.743v3.487A1.743,1.743,0,0,0,67.744,326.973Z" transform="translate(-33.027 -264.213)" fill="#fdb813"/>
    <path id="Path_3251" data-name="Path 3251" d="M211.23,40h-3.486A1.743,1.743,0,0,0,206,41.744v3.487a1.743,1.743,0,0,0,1.743,1.743h3.486a1.743,1.743,0,0,0,1.743-1.743V41.744A1.743,1.743,0,0,0,211.23,40Z" transform="translate(-148.621 -33.027)" fill="#fdb813"/>
    <path id="Path_3252" data-name="Path 3252" d="M211.23,110h-3.486A1.743,1.743,0,0,0,206,111.743v3.487a1.743,1.743,0,0,0,1.743,1.743h3.486a1.743,1.743,0,0,0,1.743-1.743v-3.487A1.743,1.743,0,0,0,211.23,110Z" transform="translate(-148.621 -90.823)" fill="#fdb813"/>
    <path id="Path_3253" data-name="Path 3253" d="M211.23,180h-3.486A1.743,1.743,0,0,0,206,181.743v3.487a1.743,1.743,0,0,0,1.743,1.743h3.486a1.743,1.743,0,0,0,1.743-1.743v-3.487A1.743,1.743,0,0,0,211.23,180Z" transform="translate(-148.621 -148.62)" fill="#fdb813"/>
    <path id="Path_3254" data-name="Path 3254" d="M211.23,250h-3.486A1.743,1.743,0,0,0,206,251.743v3.487a1.743,1.743,0,0,0,1.743,1.743h3.486a1.743,1.743,0,0,0,1.743-1.743v-3.487A1.743,1.743,0,0,0,211.23,250Z" transform="translate(-148.621 -206.417)" fill="#fdb813"/>
    <path id="Path_3255" data-name="Path 3255" d="M211.23,320h-3.486A1.743,1.743,0,0,0,206,321.743v3.487a1.743,1.743,0,0,0,1.743,1.743h3.486a1.743,1.743,0,0,0,1.743-1.743v-3.487A1.743,1.743,0,0,0,211.23,320Z" transform="translate(-148.621 -264.213)" fill="#fdb813"/>
    <path id="Path_3256" data-name="Path 3256" d="M396.229,180h-3.486A1.743,1.743,0,0,0,391,181.743v3.487a1.743,1.743,0,0,0,1.743,1.743h3.486a1.743,1.743,0,0,0,1.743-1.743v-3.487A1.744,1.744,0,0,0,396.229,180Z" transform="translate(-301.368 -148.62)" fill="#fdb813"/>
    <path id="Path_3257" data-name="Path 3257" d="M396.229,250h-3.486A1.743,1.743,0,0,0,391,251.743v3.487a1.743,1.743,0,0,0,1.743,1.743h3.486a1.743,1.743,0,0,0,1.743-1.743v-3.487A1.744,1.744,0,0,0,396.229,250Z" transform="translate(-301.368 -206.417)" fill="#fdb813"/>
    <path id="Path_3258" data-name="Path 3258" d="M396.229,320h-3.486A1.743,1.743,0,0,0,391,321.743v3.487a1.743,1.743,0,0,0,1.743,1.743h3.486a1.743,1.743,0,0,0,1.743-1.743v-3.487A1.743,1.743,0,0,0,396.229,320Z" transform="translate(-301.368 -264.213)" fill="#fdb813"/>
    <path id="Path_3259" data-name="Path 3259" d="M326.231,180h-3.486A1.743,1.743,0,0,0,321,181.743v3.487a1.743,1.743,0,0,0,1.743,1.743h3.486a1.743,1.743,0,0,0,1.743-1.743v-3.487A1.744,1.744,0,0,0,326.231,180Z" transform="translate(-243.573 -148.62)" fill="#fdb813"/>
    <path id="Path_3260" data-name="Path 3260" d="M326.231,250h-3.486A1.743,1.743,0,0,0,321,251.743v3.487a1.743,1.743,0,0,0,1.743,1.743h3.486a1.743,1.743,0,0,0,1.743-1.743v-3.487A1.744,1.744,0,0,0,326.231,250Z" transform="translate(-243.573 -206.417)" fill="#fdb813"/>
    <path id="Path_3261" data-name="Path 3261" d="M326.231,320h-3.486A1.743,1.743,0,0,0,321,321.743v3.487a1.743,1.743,0,0,0,1.743,1.743h3.486a1.743,1.743,0,0,0,1.743-1.743v-3.487A1.743,1.743,0,0,0,326.231,320Z" transform="translate(-243.573 -264.213)" fill="#fdb813"/>
  </g>
</svg>
