<svg id="icon-airport" xmlns="http://www.w3.org/2000/svg" width="112.028" height="91.236" viewBox="0 0 112.028 91.236">
  <path id="Path_3266" data-name="Path 3266" d="M110.386,87.952H66.811l-5.847-5.258a1.642,1.642,0,0,0-2.2,2.442L61.9,87.952H11.139l11-11.243A4.034,4.034,0,0,1,25,75.5H46.518A4,4,0,0,1,49.2,76.532l3.615,3.251a1.642,1.642,0,1,0,2.195-2.442L51.4,74.091a7.281,7.281,0,0,0-4.877-1.87h-8.1L38.4,72.16A13.089,13.089,0,0,0,27.815,62.8V32.447h1.949a3.246,3.246,0,0,0,3.242-3.242V26.1a3.435,3.435,0,0,0,3.121-3.415V15.433A3.435,3.435,0,0,0,32.695,12H30.048l.887-4.995a3.917,3.917,0,0,0-3.857-4.6h-2.81V1.642a1.642,1.642,0,1,0-3.284,0v.763H18.173A3.916,3.916,0,0,0,14.315,7l.877,5H12.556a3.435,3.435,0,0,0-3.432,3.432v7.251A3.434,3.434,0,0,0,12.245,26.1v3.107a3.246,3.246,0,0,0,3.242,3.242h1.95v7.969a1.642,1.642,0,1,0,3.284,0V32.448h3.811v30.2H20.721V48.022a1.642,1.642,0,1,0-3.284,0V62.652H15.051A12.872,12.872,0,0,0,2.194,75.51V87.953H1.642a1.641,1.641,0,1,0,0,3.283H110.386a1.642,1.642,0,1,0,0-3.284ZM17.548,6.433a.636.636,0,0,1,.625-.744h8.9a.635.635,0,0,1,.625.744L26.713,12H18.525Zm-5.139,9a.148.148,0,0,1,.148-.148H32.694a.149.149,0,0,1,.149.148v7.251a.148.148,0,0,1-.149.148H12.556a.147.147,0,0,1-.148-.148Zm3.12,10.683H29.721v3.049H15.528ZM5.477,75.509a9.585,9.585,0,0,1,9.574-9.574h10.8a9.792,9.792,0,0,1,9.115,6.285H25a7.337,7.337,0,0,0-5.214,2.193L6.547,87.952H5.477Zm0,0" fill="#fdb813"/>
  <path id="Path_3267" data-name="Path 3267" d="M125.487,81.24a1.642,1.642,0,1,1-1.642-1.642A1.642,1.642,0,0,1,125.487,81.24Zm0,0" transform="translate(-95.465 -62.181)" fill="#fdb813"/>
  <path id="Path_3268" data-name="Path 3268" d="M99.788,81.24A1.642,1.642,0,1,1,98.146,79.6,1.642,1.642,0,0,1,99.788,81.24Zm0,0" transform="translate(-75.388 -62.181)" fill="#fdb813"/>
  <path id="Path_3269" data-name="Path 3269" d="M72.884,81.24A1.641,1.641,0,1,1,71.243,79.6,1.642,1.642,0,0,1,72.884,81.24Zm0,0" transform="translate(-54.372 -62.181)" fill="#fdb813"/>
  <path id="Path_3270" data-name="Path 3270" d="M177.2,161.712l-2.27.792a4.088,4.088,0,0,0,1.31,7.962h.032l16.388-.156a8.271,8.271,0,0,0,2.218-.32l11.037-3.108.307,1.072a3.324,3.324,0,0,0,4.118,2.286l7.1-2.03a3.334,3.334,0,0,0,2.286-4.118l-.291-1.015,20.191-5.686a5.048,5.048,0,0,0,.656-9.469l-4.489-1.989a16.269,16.269,0,0,0-11.774-.56l-.021.007-10.5,3.664a1.642,1.642,0,1,0,1.082,3.1l10.49-3.661a12.994,12.994,0,0,1,7.55-.2l-1.518.419a1.642,1.642,0,0,0,.436,3.224,1.617,1.617,0,0,0,.438-.06l5.607-1.546,1.372.608a1.765,1.765,0,0,1-.222,3.309L218.3,159.989a3.335,3.335,0,0,0-3.541-1.156l-7.1,2.03a3.336,3.336,0,0,0-2.39,2.793l-11.286,3.178a5.03,5.03,0,0,1-1.347.195l-16.39.155h-.007a.807.807,0,0,1-.776-.582.832.832,0,0,1-.032-.223.8.8,0,0,1,.548-.762l.024-.008,30.753-10.733a1.641,1.641,0,1,0-1.082-3.1l-16.353,5.706-9.448-8.285a5.553,5.553,0,0,0-5.22-1.177l-2.608.746a1.951,1.951,0,0,0-1.118,2.91Zm31.333,2.33a.039.039,0,0,1,.028-.022l7.1-2.03.013,0a.047.047,0,0,1,.045.034l.851,2.975a.048.048,0,0,1-.032.058l-7.1,2.03a.038.038,0,0,1-.036,0,.046.046,0,0,1-.023-.028l-.85-2.974A.038.038,0,0,1,208.537,164.042ZM175.56,151.177a2.285,2.285,0,0,1,2.15.485l8.053,7.063-5.379,1.877-5.73-9.167Zm0,0" transform="translate(-133.3 -112.909)" fill="#fdb813"/>
  <path id="Path_3271" data-name="Path 3271" d="M403.672,180.417a1.641,1.641,0,1,0-2.065-1.061A1.641,1.641,0,0,0,403.672,180.417Zm0,0" transform="translate(-313.672 -138.437)" fill="#fdb813"/>
  <path id="Path_3272" data-name="Path 3272" d="M379.9,188.049a1.641,1.641,0,1,0-2.065-1.061A1.642,1.642,0,0,0,379.9,188.049Zm0,0" transform="translate(-295.105 -144.4)" fill="#fdb813"/>
  <path id="Path_3273" data-name="Path 3273" d="M356.135,195.685a1.642,1.642,0,1,0-2.065-1.062A1.642,1.642,0,0,0,356.135,195.685Zm0,0" transform="translate(-276.536 -150.364)" fill="#fdb813"/>
  <path id="Path_3274" data-name="Path 3274" d="M331.362,200.191a1.642,1.642,0,1,0,2.065,1.062A1.642,1.642,0,0,0,331.362,200.191Zm0,0" transform="translate(-257.968 -156.327)" fill="#fdb813"/>
  <path id="Path_3275" data-name="Path 3275" d="M307.592,207.824a1.642,1.642,0,1,0,2.065,1.062A1.642,1.642,0,0,0,307.592,207.824Zm0,0" transform="translate(-239.399 -162.289)" fill="#fdb813"/>
  <path id="Path_3276" data-name="Path 3276" d="M283.823,215.457a1.642,1.642,0,1,0,2.065,1.062A1.642,1.642,0,0,0,283.823,215.457Zm0,0" transform="translate(-220.83 -168.252)" fill="#fdb813"/>
  <path id="Path_3277" data-name="Path 3277" d="M113.636,355.59h-1.584a1.642,1.642,0,0,0,0,3.284h1.584a1.642,1.642,0,1,0,0-3.284Zm0,0" transform="translate(-86.252 -277.785)" fill="#fdb813"/>
  <path id="Path_3278" data-name="Path 3278" d="M142,355.59h-1.585a1.642,1.642,0,0,0,0,3.284H142a1.642,1.642,0,0,0,0-3.284Zm0,0" transform="translate(-108.409 -277.785)" fill="#fdb813"/>
  <path id="Path_3279" data-name="Path 3279" d="M170.358,355.59h-1.584a1.642,1.642,0,1,0,0,3.284h1.584a1.642,1.642,0,1,0,0-3.284Zm0,0" transform="translate(-130.563 -277.785)" fill="#fdb813"/>
  <path id="Path_3280" data-name="Path 3280" d="M198.718,355.59h-1.584a1.642,1.642,0,0,0,0,3.284h1.584a1.642,1.642,0,0,0,0-3.284Zm0,0" transform="translate(-152.718 -277.785)" fill="#fdb813"/>
  <path id="Path_3281" data-name="Path 3281" d="M113.636,379.07h-1.584a1.641,1.641,0,1,0,0,3.283h1.584a1.641,1.641,0,1,0,0-3.283Zm0,0" transform="translate(-86.252 -296.128)" fill="#fdb813"/>
  <path id="Path_3282" data-name="Path 3282" d="M82.917,379.07H81.333a1.641,1.641,0,1,0,0,3.283h1.584a1.641,1.641,0,1,0,0-3.283Zm0,0" transform="translate(-62.255 -296.128)" fill="#fdb813"/>
  <path id="Path_3283" data-name="Path 3283" d="M228.7,379.07a1.641,1.641,0,1,0,0,3.283h1.585a1.641,1.641,0,0,0,0-3.283Zm0,0" transform="translate(-177.374 -296.128)" fill="#fdb813"/>
  <path id="Path_3284" data-name="Path 3284" d="M142,379.07h-1.585a1.641,1.641,0,0,0,0,3.283H142a1.641,1.641,0,0,0,0-3.283Zm0,0" transform="translate(-108.409 -296.128)" fill="#fdb813"/>
  <path id="Path_3285" data-name="Path 3285" d="M170.358,379.07h-1.584a1.641,1.641,0,1,0,0,3.283h1.584a1.641,1.641,0,1,0,0-3.283Zm0,0" transform="translate(-130.563 -296.128)" fill="#fdb813"/>
  <path id="Path_3286" data-name="Path 3286" d="M198.718,379.07h-1.584a1.641,1.641,0,1,0,0,3.283h1.584a1.641,1.641,0,1,0,0-3.283Zm0,0" transform="translate(-152.718 -296.128)" fill="#fdb813"/>
</svg>
