<svg id="icon-bag" xmlns="http://www.w3.org/2000/svg" width="66" height="66" viewBox="0 0 66 66">
  <g id="Group_1323" data-name="Group 1323">
    <g id="Group_1322" data-name="Group 1322">
      <path id="Path_3230" data-name="Path 3230" d="M39.187,16.5H33V12.375a12.375,12.375,0,1,0-24.75,0V16.5H2.062A2.063,2.063,0,0,0,0,18.562V57.75A8.258,8.258,0,0,0,8.25,66H22.687a2.062,2.062,0,1,0,0-4.125H8.25A4.129,4.129,0,0,1,4.125,57.75V20.625H8.25v2.062a2.062,2.062,0,1,0,4.125,0V20.625h16.5v2.062a2.062,2.062,0,1,0,4.125,0V20.625h4.125v2.062a2.062,2.062,0,1,0,4.125,0V18.562A2.063,2.063,0,0,0,39.187,16.5Zm-10.312,0h-16.5V12.375a8.25,8.25,0,1,1,16.5,0Z" fill="#fdb813"/>
    </g>
  </g>
  <g id="Group_1325" data-name="Group 1325" transform="translate(28.875 24.75)">
    <g id="Group_1324" data-name="Group 1324">
      <path id="Path_3231" data-name="Path 3231" d="M259.062,200.25h-6.4a10.31,10.31,0,0,0-20.2,0h-6.4A2.063,2.063,0,0,0,224,202.312V225a8.258,8.258,0,0,0,8.25,8.25h20.625a8.258,8.258,0,0,0,8.25-8.25V202.312A2.063,2.063,0,0,0,259.062,200.25Zm-16.5-4.125a6.176,6.176,0,0,1,5.808,4.125H236.754A6.176,6.176,0,0,1,242.562,196.125ZM257,225a4.129,4.129,0,0,1-4.125,4.125H232.25A4.129,4.129,0,0,1,228.125,225V204.375h4.125v2.063a2.063,2.063,0,0,0,4.125,0v-2.062H248.75v2.063a2.063,2.063,0,0,0,4.125,0v-2.062H257Z" transform="translate(-224 -192)" fill="#fdb813"/>
    </g>
  </g>
</svg>
