<svg xmlns="http://www.w3.org/2000/svg" width="565.843" height="550.299" viewBox="0 0 565.843 550.299">
  <path id="icon-tree-bg-2" d="M-160.119,318.063a9.777,9.777,0,0,0,0-13.83,9.773,9.773,0,0,0-13.832,0l-62.7,62.7V336.519l76.533-76.53a9.777,9.777,0,0,0,0-13.83,9.773,9.773,0,0,0-13.832,0l-62.7,62.7V240.847a12.581,12.581,0,0,0-12.579-12.578,12.581,12.581,0,0,0-12.578,12.578v70.885l-65.276-65.281a141.208,141.208,0,0,0,11.9-56.853c0-78.373-63.764-142.137-142.137-142.137S-599.46,111.224-599.46,189.6a143.11,143.11,0,0,0,1.514,20.77q-5.3-.5-10.744-.5A114.539,114.539,0,0,0-723.1,324.275,114.547,114.547,0,0,0-618.789,438.213V545.866a13.978,13.978,0,0,0,13.976,13.975,13.978,13.978,0,0,0,13.975-13.975V437.278A114.592,114.592,0,0,0-494.31,326.852a141.338,141.338,0,0,0,26.734,4.493V582.914A13.978,13.978,0,0,0-453.6,596.889a13.98,13.98,0,0,0,13.977-13.975V330.594a142.336,142.336,0,0,0,102.988-66.027l74.827,74.828v30.411l-65.576-65.573a9.77,9.77,0,0,0-13.83,0,9.775,9.775,0,0,0,0,13.83l79.406,79.411v40.1L-327.383,372a9.769,9.769,0,0,0-13.829,0,9.781,9.781,0,0,0,0,13.829l79.4,79.407V585.186a12.577,12.577,0,0,0,12.578,12.573,12.577,12.577,0,0,0,12.579-12.573V462.357l76.533-76.534a9.777,9.777,0,0,0,0-13.83,9.773,9.773,0,0,0-13.832,0l-62.7,62.7V394.6Zm-430.719,99.349V326.6a13.978,13.978,0,0,0-13.975-13.975A13.978,13.978,0,0,0-618.789,326.6v91.98a94.975,94.975,0,0,1-84.743-94.3,94.952,94.952,0,0,1,94.843-94.844,95.4,95.4,0,0,1,15.275,1.226,142.838,142.838,0,0,0,79.477,89.309q.095,2.141.093,4.308A94.986,94.986,0,0,1-590.838,417.413Zm20.754-179.768a95.337,95.337,0,0,1,51.932,58.336A123.339,123.339,0,0,1-570.084,237.645Zm130.46,73.229V219.88A13.98,13.98,0,0,0-453.6,205.9a13.978,13.978,0,0,0-13.975,13.975v91.852A121.587,121.587,0,0,1-495.738,306a114.764,114.764,0,0,0-81.672-91.791,122.521,122.521,0,0,1-2.483-24.616A122.71,122.71,0,0,1-457.317,67.025,122.713,122.713,0,0,1-334.741,189.6C-334.741,251.175-380.393,302.275-439.624,310.874Z" transform="translate(723.097 -47.46)" fill="#ffa800" opacity="0.089"/>
</svg>
