<svg xmlns="http://www.w3.org/2000/svg" width="128.129" height="124.609" viewBox="0 0 128.129 124.609">
  <path id="icon-trees" d="M-595.616,108.735a2.214,2.214,0,0,0,0-3.132,2.213,2.213,0,0,0-3.132,0l-14.2,14.2v-6.887l17.33-17.33a2.214,2.214,0,0,0,0-3.132,2.213,2.213,0,0,0-3.132,0l-14.2,14.2v-15.4a2.849,2.849,0,0,0-2.848-2.848,2.849,2.849,0,0,0-2.848,2.848V107.3l-14.781-14.782a31.973,31.973,0,0,0,2.7-12.874A32.222,32.222,0,0,0-662.914,47.46,32.223,32.223,0,0,0-695.1,79.645a32.408,32.408,0,0,0,.343,4.7q-1.2-.112-2.433-.114A25.936,25.936,0,0,0-723.1,110.142a25.938,25.938,0,0,0,23.62,25.8v24.377a3.165,3.165,0,0,0,3.165,3.165,3.165,3.165,0,0,0,3.165-3.165V135.73a25.948,25.948,0,0,0,21.858-25,32,32,0,0,0,6.054,1.017v56.965a3.165,3.165,0,0,0,3.164,3.165,3.166,3.166,0,0,0,3.165-3.165V111.573a32.23,32.23,0,0,0,23.32-14.951l16.944,16.944v6.886L-633.492,105.6a2.212,2.212,0,0,0-3.132,0,2.214,2.214,0,0,0,0,3.132l17.981,17.982V135.8l-14.849-14.848a2.212,2.212,0,0,0-3.131,0,2.215,2.215,0,0,0,0,3.132l17.98,17.981v27.162a2.848,2.848,0,0,0,2.848,2.847,2.848,2.848,0,0,0,2.848-2.847V141.409l17.33-17.33a2.214,2.214,0,0,0,0-3.132,2.213,2.213,0,0,0-3.132,0l-14.2,14.2v-9.079Zm-97.532,22.5V110.668a3.165,3.165,0,0,0-3.165-3.165,3.165,3.165,0,0,0-3.165,3.165V131.5a21.506,21.506,0,0,1-19.189-21.354A21.5,21.5,0,0,1-697.19,88.665a21.6,21.6,0,0,1,3.459.278,32.344,32.344,0,0,0,18,20.223q.022.485.021.976A21.509,21.509,0,0,1-693.148,131.232Zm4.7-40.706a21.588,21.588,0,0,1,11.76,13.21A27.929,27.929,0,0,1-688.448,90.525Zm29.541,16.582V86.5a3.166,3.166,0,0,0-3.165-3.165,3.165,3.165,0,0,0-3.164,3.165v20.8a27.533,27.533,0,0,1-6.377-1.3,25.987,25.987,0,0,0-18.494-20.785,27.738,27.738,0,0,1-.562-5.574A27.786,27.786,0,0,1-662.914,51.89a27.787,27.787,0,0,1,27.756,27.755A27.8,27.8,0,0,1-658.907,107.107Z" transform="translate(723.097 -47.46)" fill="#fdb813"/>
</svg>
