<svg xmlns="http://www.w3.org/2000/svg" width="94.286" height="66" viewBox="0 0 94.286 66">
  <g id="icon-train" transform="translate(0)">
    <g id="_020---Train" data-name="020---Train" transform="translate(0 0)">
      <path id="Shape" d="M4.714,66H89.571a4.714,4.714,0,0,0,4.714-4.714V59.714A4.714,4.714,0,0,0,89.571,55H78.161A8.61,8.61,0,0,0,80.1,50.286H81.7A12.571,12.571,0,0,0,92.156,30.742L75.394,5.6A12.545,12.545,0,0,0,64.933,0H4.714A4.714,4.714,0,0,0,0,4.714v44a1.571,1.571,0,0,0,1.571,1.571h40.9A8.61,8.61,0,0,0,44.41,55H4.714A4.714,4.714,0,0,0,0,59.714v1.571A4.714,4.714,0,0,0,4.714,66ZM71.5,55a5.491,5.491,0,0,1-5.42-4.714H76.923A5.491,5.491,0,0,1,71.5,55Zm-8.6-4.714A8.61,8.61,0,0,0,64.839,55H57.733a8.61,8.61,0,0,0,1.942-4.714Zm21.75-25.143H62.857a1.571,1.571,0,0,1-1.571-1.571v-11A1.571,1.571,0,0,1,62.857,11H75.218Zm-81.5,11H7.857v1.571a4.714,4.714,0,0,0,4.714,4.714h11a4.714,4.714,0,0,0,4.714-4.714V36.143H64.429a1.571,1.571,0,0,0,0-3.143H28.286V12.571a4.714,4.714,0,0,0-4.714-4.714h-11a4.714,4.714,0,0,0-4.714,4.714V33H3.143V4.714A1.571,1.571,0,0,1,4.714,3.143H64.933a9.408,9.408,0,0,1,7.845,4.2l.344.515H62.857a4.714,4.714,0,0,0-4.714,4.714v11a4.714,4.714,0,0,0,4.714,4.714H86.743l2.8,4.2c.113.167.2.344.3.515H72.286a1.571,1.571,0,0,0,0,3.143H91a9.451,9.451,0,0,1-9.309,11H3.143Zm22,1.571a1.571,1.571,0,0,1-1.571,1.571h-11A1.571,1.571,0,0,1,11,37.714V12.571A1.571,1.571,0,0,1,12.571,11h11a1.571,1.571,0,0,1,1.571,1.571ZM45.652,50.286H56.494a5.473,5.473,0,0,1-10.843,0ZM3.143,59.714a1.571,1.571,0,0,1,1.571-1.571H89.571a1.571,1.571,0,0,1,1.571,1.571v1.571a1.571,1.571,0,0,1-1.571,1.571H4.714a1.571,1.571,0,0,1-1.571-1.571Z" transform="translate(0 0)" fill="#fdb813"/>
      <path id="Shape-2" data-name="Shape" d="M36.714,5h-11A4.714,4.714,0,0,0,21,9.714v11a4.714,4.714,0,0,0,4.714,4.714h11a4.714,4.714,0,0,0,4.714-4.714v-11A4.714,4.714,0,0,0,36.714,5Zm1.571,15.714a1.571,1.571,0,0,1-1.571,1.571h-11a1.571,1.571,0,0,1-1.571-1.571v-11a1.571,1.571,0,0,1,1.571-1.571h11a1.571,1.571,0,0,1,1.571,1.571Z" transform="translate(12 2.857)" fill="#fdb813"/>
      <path id="Shape-3" data-name="Shape" d="M15.286,9H10.571a1.571,1.571,0,0,0,0,3.143h4.714a1.571,1.571,0,1,0,0-3.143Z" transform="translate(5.143 5.143)" fill="#fdb813"/>
      <path id="Shape-4" data-name="Shape" d="M15.286,13H10.571a1.571,1.571,0,1,0,0,3.143h4.714a1.571,1.571,0,1,0,0-3.143Z" transform="translate(5.143 7.429)" fill="#fdb813"/>
    </g>
  </g>
</svg>
