<svg xmlns="http://www.w3.org/2000/svg" width="74.12" height="74.12" viewBox="0 0 74.12 74.12">
  <g id="icon-hospital" transform="translate(-4 -4)">
    <path id="Path_3232" data-name="Path 3232" d="M5.853,78.12H76.267a1.853,1.853,0,0,0,1.853-1.853V31.795a1.853,1.853,0,0,0-1.853-1.853H67V13.265a1.853,1.853,0,0,0-1.853-1.853H55.884V9.559A5.559,5.559,0,0,0,50.325,4H31.795a5.559,5.559,0,0,0-5.559,5.559v1.853H16.971a1.853,1.853,0,0,0-1.853,1.853V29.942H5.853A1.853,1.853,0,0,0,4,31.795V76.267A1.853,1.853,0,0,0,5.853,78.12ZM67,33.648h7.412V74.414H67ZM46.619,74.414H35.5V61.443H46.619ZM29.942,9.559a1.853,1.853,0,0,1,1.853-1.853h18.53a1.853,1.853,0,0,1,1.853,1.853v18.53a1.853,1.853,0,0,1-1.853,1.853H31.795a1.853,1.853,0,0,1-1.853-1.853ZM18.824,15.118h7.412V28.089a5.559,5.559,0,0,0,5.559,5.559h18.53a5.559,5.559,0,0,0,5.559-5.559V15.118H63.3v59.3H50.325V59.59a1.853,1.853,0,0,0-1.853-1.853H33.648a1.853,1.853,0,0,0-1.853,1.853V74.414H18.824ZM7.706,33.648h7.412V74.414H7.706Z" fill="#fdb813"/>
    <path id="Path_3233" data-name="Path 3233" d="M21.853,17.265h3.706v3.706a1.853,1.853,0,1,0,3.706,0V17.265h3.706a1.853,1.853,0,1,0,0-3.706H29.265V9.853a1.853,1.853,0,0,0-3.706,0v3.706H21.853a1.853,1.853,0,1,0,0,3.706Z" transform="translate(13.648 3.412)" fill="#fdb813"/>
    <path id="Path_3234" data-name="Path 3234" d="M17.853,26.706h3.706a1.853,1.853,0,1,0,0-3.706H17.853a1.853,1.853,0,1,0,0,3.706Z" transform="translate(10.236 16.207)" fill="#fdb813"/>
    <path id="Path_3235" data-name="Path 3235" d="M23.412,29.853A1.853,1.853,0,0,0,21.559,28H17.853a1.853,1.853,0,1,0,0,3.706h3.706A1.853,1.853,0,0,0,23.412,29.853Z" transform="translate(10.236 20.472)" fill="#fdb813"/>
    <path id="Path_3236" data-name="Path 3236" d="M23.853,26.706h3.706a1.853,1.853,0,1,0,0-3.706H23.853a1.853,1.853,0,0,0,0,3.706Z" transform="translate(15.354 16.207)" fill="#fdb813"/>
    <path id="Path_3237" data-name="Path 3237" d="M23.853,31.706h3.706a1.853,1.853,0,1,0,0-3.706H23.853a1.853,1.853,0,0,0,0,3.706Z" transform="translate(15.354 20.472)" fill="#fdb813"/>
    <path id="Path_3238" data-name="Path 3238" d="M29.853,26.706h3.706a1.853,1.853,0,1,0,0-3.706H29.853a1.853,1.853,0,1,0,0,3.706Z" transform="translate(20.472 16.207)" fill="#fdb813"/>
    <path id="Path_3239" data-name="Path 3239" d="M29.853,31.706h3.706a1.853,1.853,0,1,0,0-3.706H29.853a1.853,1.853,0,1,0,0,3.706Z" transform="translate(20.472 20.472)" fill="#fdb813"/>
  </g>
</svg>
