<svg id="logo-zimple-top" xmlns="http://www.w3.org/2000/svg" xmlns:xlink="http://www.w3.org/1999/xlink" width="253" height="100.872" viewBox="0 0 253 100.872">
  <defs>
    <linearGradient id="linear-gradient" x1="-45.829" y1="74.228" x2="-45.872" y2="74.156" gradientUnits="objectBoundingBox">
      <stop offset="0" stop-color="#f79321"/>
      <stop offset="1" stop-color="#c1272c"/>
    </linearGradient>
    <linearGradient id="linear-gradient-2" x1="-63.046" y1="52.683" x2="-63.141" y2="52.672" xlink:href="#linear-gradient"/>
  </defs>
  <g id="Home" transform="translate(0 0)">
    <g id="zimple-logo" transform="translate(0 0)">
      <path id="Fill-1" d="M83.781,3.96V58.144a6.888,6.888,0,0,0,6.33,6.836.808.808,0,0,1,.76.76v9.115a.671.671,0,0,1-.76.76A17.526,17.526,0,0,1,73.4,58.144V3.96a.671.671,0,0,1,.76-.76h9.115c.253,0,.506.253.506.76" transform="translate(112.447 4.902)" fill="#333132"/>
      <path id="Fill-3" d="M125.7,42.317H92.022c-.506,0-.76.506-.76,1.013a14.844,14.844,0,0,0,3.292,4.811,15.692,15.692,0,0,0,21.522.506.77.77,0,0,1,1.013,0l6.33,6.33a.77.77,0,0,1,0,1.013,26.333,26.333,0,0,1-37.726-1.772,26.1,26.1,0,0,1,0-33.928,26.27,26.27,0,0,1,38.233-1.266,25.957,25.957,0,0,1,7.09,13.166C132.28,37.507,129.495,42.317,125.7,42.317Zm-6.583-10.381c.506,0,.76-.506.76-1.013a14.844,14.844,0,0,0-3.292-4.811,15.587,15.587,0,0,0-22.028,0,16.218,16.218,0,0,0-3.292,4.811c-.253.506.253,1.013.76,1.013Z" transform="translate(121.677 17.437)" fill="#333132"/>
      <path id="Fill-5" d="M29.234,12.06V62.446a.671.671,0,0,1-.76.76H19.36a.671.671,0,0,1-.76-.76V12.06a.671.671,0,0,1,.76-.76h9.115a.808.808,0,0,1,.76.76" transform="translate(28.495 17.311)" fill="#333132"/>
      <path id="Fill-7" d="M17.977,53.131H41.524a.671.671,0,0,1,.76.76v8.862a.671.671,0,0,1-.76.76H1.013a.671.671,0,0,1-.76-.76V58.195a4.885,4.885,0,0,1,.76-2.532L24.813,23c.253-.506,0-1.266-.506-1.266H.76c-.253,0-.76,0-.76-.76V11.86a.671.671,0,0,1,.76-.76H41.524a.671.671,0,0,1,.76.76v4.051a4.885,4.885,0,0,1-.76,2.532L17.471,51.865a.76.76,0,0,0,.506,1.266" transform="translate(0 17.005)" fill="#333132"/>
      <path id="Fill-10" d="M70.275,11.3A17.506,17.506,0,0,1,87.746,28.771V62.446a.671.671,0,0,1-.76.76H77.871a.671.671,0,0,1-.76-.76V28.771a7.077,7.077,0,0,0-7.09-7.09H68.5a7.077,7.077,0,0,0-7.09,7.09V62.446a.671.671,0,0,1-.76.76H51.539a.671.671,0,0,1-.76-.76V28.771a7.077,7.077,0,0,0-7.09-7.09H41.917a7.077,7.077,0,0,0-7.09,7.09V62.446a.671.671,0,0,1-.76.76H25.46a.671.671,0,0,1-.76-.76V28.771A17.506,17.506,0,0,1,42.171,11.3h1.772A18.3,18.3,0,0,1,56.35,16.364h0A18.3,18.3,0,0,1,68.756,11.3h1.519Z" transform="translate(37.84 17.311)" fill="#333132"/>
      <path id="Fill-12" d="M51.5,83.108V33.481A20.79,20.79,0,0,1,57.07,19.3a27.036,27.036,0,0,1,19.243-8.1,25.954,25.954,0,0,1-.506,51.905,26.337,26.337,0,0,1-13.926-4.051v23.8a.671.671,0,0,1-.76.76H52.006C52.006,83.868,51.5,83.614,51.5,83.108ZM62.134,41.837a8.45,8.45,0,0,0,2.279,5.824,15.5,15.5,0,0,0,21.015,1.772,14.76,14.76,0,0,0,6.077-12.153,15.562,15.562,0,0,0-15.445-15.7,15.093,15.093,0,0,0-10.887,4.3,3.5,3.5,0,0,0-.76,1.013,8.45,8.45,0,0,0-2.279,5.824v9.115Z" transform="translate(78.896 17.158)" fill="#333132"/>
      <g id="Group-2" transform="translate(43.443 0)">
        <path id="Fill-16" d="M23.609,0h0L.315,10.887c-.253,0-.253.506,0,.506l6.33,3.545c.253,0,.506.253.76.506L23.609,0Z" transform="translate(-0.125 0)" fill="url(#linear-gradient)"/>
        <path id="Fill-19" d="M3,15.445c.253.253.506.506.506.76l3.038,6.583c0,.253.506.253.506,0L19.458.506V0Z" transform="translate(4.279 0)" fill="url(#linear-gradient-2)"/>
      </g>
    </g>
  </g>
</svg>
