<svg id="logo-footer-zimple" xmlns="http://www.w3.org/2000/svg" xmlns:xlink="http://www.w3.org/1999/xlink" width="158" height="62.995" viewBox="0 0 158 62.995">
  <defs>
    <linearGradient id="linear-gradient" x1="-45.829" y1="74.228" x2="-45.872" y2="74.156" gradientUnits="objectBoundingBox">
      <stop offset="0" stop-color="#f79321"/>
      <stop offset="1" stop-color="#c1272c"/>
    </linearGradient>
    <linearGradient id="linear-gradient-2" x1="-63.046" y1="52.683" x2="-63.141" y2="52.672" xlink:href="#linear-gradient"/>
  </defs>
  <g id="Home" transform="translate(0 0)">
    <g id="zimple-logo" transform="translate(0 0)">
      <path id="Fill-1" d="M79.883,3.674V37.513a4.3,4.3,0,0,0,3.953,4.269.5.5,0,0,1,.474.474v5.692a.419.419,0,0,1-.474.474A10.945,10.945,0,0,1,73.4,37.513V3.674a.419.419,0,0,1,.474-.474h5.692c.158,0,.316.158.316.474" transform="translate(42.662 1.86)" fill="#333132"/>
      <path id="Fill-3" d="M108.322,30.7H87.292c-.316,0-.474.316-.474.632a9.27,9.27,0,0,0,2.056,3,9.8,9.8,0,0,0,13.44.316.481.481,0,0,1,.632,0l3.953,3.953a.481.481,0,0,1,0,.632,16.445,16.445,0,0,1-23.56-1.107,16.24,16.24,0,1,1,28.3-13.757C112.433,27.7,110.694,30.7,108.322,30.7Zm-4.111-6.483c.316,0,.474-.316.474-.632a9.27,9.27,0,0,0-2.056-3,9.734,9.734,0,0,0-13.757,0,10.128,10.128,0,0,0-2.056,3c-.158.316.158.632.474.632Z" transform="translate(46.164 6.616)" fill="#333132"/>
      <path id="Fill-5" d="M25.241,11.774V43.241a.419.419,0,0,1-.474.474H19.074a.419.419,0,0,1-.474-.474V11.774a.419.419,0,0,1,.474-.474h5.692a.5.5,0,0,1,.474.474" transform="translate(10.811 6.568)" fill="#333132"/>
      <path id="Fill-7" d="M11.227,37.348H25.932a.419.419,0,0,1,.474.474v5.534a.419.419,0,0,1-.474.474H.632a.419.419,0,0,1-.474-.474V40.511A3.051,3.051,0,0,1,.632,38.93L15.5,18.532c.158-.316,0-.791-.316-.791H.474c-.158,0-.474,0-.474-.474V11.574A.419.419,0,0,1,.474,11.1H25.932a.419.419,0,0,1,.474.474V14.1a3.051,3.051,0,0,1-.474,1.581L10.91,36.558a.475.475,0,0,0,.316.791" transform="translate(0 6.452)" fill="#333132"/>
      <path id="Fill-10" d="M53.162,11.3a10.932,10.932,0,0,1,10.91,10.91v21.03a.419.419,0,0,1-.474.474H57.906a.419.419,0,0,1-.474-.474V22.21A4.42,4.42,0,0,0,53,17.783h-.949a4.42,4.42,0,0,0-4.427,4.427v21.03a.419.419,0,0,1-.474.474H41.461a.419.419,0,0,1-.474-.474V22.21a4.42,4.42,0,0,0-4.427-4.427H35.452a4.42,4.42,0,0,0-4.427,4.427v21.03a.419.419,0,0,1-.474.474H25.174a.419.419,0,0,1-.474-.474V22.21A10.932,10.932,0,0,1,35.61,11.3h1.107a11.43,11.43,0,0,1,7.748,3.162h0A11.43,11.43,0,0,1,52.213,11.3h.949Z" transform="translate(14.356 6.568)" fill="#333132"/>
      <path id="Fill-12" d="M51.5,56.107V25.115a12.984,12.984,0,0,1,3.479-8.855A16.884,16.884,0,0,1,67,11.2a16.209,16.209,0,0,1-.316,32.415,16.448,16.448,0,0,1-8.7-2.53V55.949a.419.419,0,0,1-.474.474H51.816C51.816,56.581,51.5,56.423,51.5,56.107Zm6.641-25.774a5.277,5.277,0,0,0,1.423,3.637,9.682,9.682,0,0,0,13.124,1.107,9.218,9.218,0,0,0,3.795-7.59,9.718,9.718,0,0,0-9.646-9.8,9.425,9.425,0,0,0-6.8,2.688,2.183,2.183,0,0,0-.474.632,5.277,5.277,0,0,0-1.423,3.637v5.692Z" transform="translate(29.933 6.51)" fill="#333132"/>
      <g id="Group-2" transform="translate(27.131 0)">
        <path id="Fill-16" d="M14.791,0h0L.244,6.8c-.158,0-.158.316,0,.316L4.2,9.329c.158,0,.316.158.474.316L14.791,0Z" transform="translate(-0.125 0)" fill="url(#linear-gradient)"/>
        <path id="Fill-19" d="M3,9.646c.158.158.316.316.316.474l1.9,4.111c0,.158.316.158.316,0L13.278.316V0Z" transform="translate(1.546 0)" fill="url(#linear-gradient-2)"/>
      </g>
    </g>
  </g>
</svg>
